<svg width="21" height="21" viewBox="0 0 21 21" fill="none" xmlns="http://www.w3.org/2000/svg">
<path d="M17.0625 3.28125H3.9375C3.57506 3.28125 3.28125 3.57506 3.28125 3.9375V17.0625C3.28125 17.4249 3.57506 17.7188 3.9375 17.7188H17.0625C17.4249 17.7188 17.7188 17.4249 17.7188 17.0625V3.9375C17.7188 3.57506 17.4249 3.28125 17.0625 3.28125Z" stroke="#889FB4" stroke-width="2" stroke-linecap="round" stroke-linejoin="round"/>
<path d="M14.4375 1.96875V4.59375" stroke="#889FB4" stroke-width="2" stroke-linecap="round" stroke-linejoin="round"/>
<path d="M6.5625 1.96875V4.59375" stroke="#889FB4" stroke-width="2" stroke-linecap="round" stroke-linejoin="round"/>
<path d="M3.28125 7.21875H17.7188" stroke="#889FB4" stroke-width="2" stroke-linecap="round" stroke-linejoin="round"/>
<path d="M7.54688 10.5H9.84375L8.53125 12.1406C8.74725 12.1403 8.96001 12.1932 9.15065 12.2948C9.34128 12.3963 9.5039 12.5434 9.62408 12.7229C9.74427 12.9024 9.81829 13.1087 9.8396 13.3237C9.8609 13.5386 9.82883 13.7555 9.74621 13.9551C9.6636 14.1547 9.53301 14.3308 9.36602 14.4678C9.19903 14.6048 9.00081 14.6985 8.78894 14.7405C8.57706 14.7826 8.35809 14.7717 8.15144 14.7088C7.94479 14.6459 7.75685 14.533 7.6043 14.3801" stroke="#889FB4" stroke-width="2" stroke-linecap="round" stroke-linejoin="round"/>
<path d="M11.8125 11.4844L13.125 10.5V14.7656" stroke="#889FB4" stroke-width="2" stroke-linecap="round" stroke-linejoin="round"/>
</svg>
