<svg width="21" height="21" viewBox="0 0 21 21" fill="none" xmlns="http://www.w3.org/2000/svg">
<path d="M9.1875 15.0938H2.625C2.2769 15.0938 1.94306 14.9555 1.69692 14.7093C1.45078 14.4632 1.3125 14.1293 1.3125 13.7812V7.875C1.3125 7.5269 1.45078 7.19306 1.69692 6.94692C1.94306 6.70078 2.2769 6.5625 2.625 6.5625H9.1875" stroke="#889FB4" stroke-width="2" stroke-linecap="round" stroke-linejoin="round"/>
<path d="M9.1875 17.7188H5.25" stroke="#889FB4" stroke-width="2" stroke-linecap="round" stroke-linejoin="round"/>
<path d="M17.0625 5.90625H14.4375" stroke="#889FB4" stroke-width="2" stroke-linecap="round" stroke-linejoin="round"/>
<path d="M17.0625 8.53125H14.4375" stroke="#889FB4" stroke-width="2" stroke-linecap="round" stroke-linejoin="round"/>
<path d="M19.0312 3.28125H12.4688C12.1063 3.28125 11.8125 3.57506 11.8125 3.9375V17.0625C11.8125 17.4249 12.1063 17.7188 12.4688 17.7188H19.0312C19.3937 17.7188 19.6875 17.4249 19.6875 17.0625V3.9375C19.6875 3.57506 19.3937 3.28125 19.0312 3.28125Z" stroke="#889FB4" stroke-width="2" stroke-linecap="round" stroke-linejoin="round"/>
<path d="M7.21875 15.0938V17.7188" stroke="#889FB4" stroke-width="2" stroke-linecap="round" stroke-linejoin="round"/>
<path d="M15.75 15.75C16.2937 15.75 16.7344 15.3093 16.7344 14.7656C16.7344 14.222 16.2937 13.7812 15.75 13.7812C15.2063 13.7812 14.7656 14.222 14.7656 14.7656C14.7656 15.3093 15.2063 15.75 15.75 15.75Z" fill="#889FB4"/>
</svg>
