<svg width="21" height="21" viewBox="0 0 21 21" fill="red" xmlns="http://www.w3.org/2000/svg">
<path d="M10.5 18.375C14.8492 18.375 18.375 14.8492 18.375 10.5C18.375 6.15076 14.8492 2.625 10.5 2.625C6.15076 2.625 2.625 6.15076 2.625 10.5C2.625 14.8492 6.15076 18.375 10.5 18.375Z" stroke="white" stroke-width="2" stroke-linecap="round" stroke-linejoin="round"/>
<path d="M10.5 13.4531C12.131 13.4531 13.4531 12.131 13.4531 10.5C13.4531 8.86903 12.131 7.54688 10.5 7.54688C8.86903 7.54688 7.54688 8.86903 7.54688 10.5C7.54688 12.131 8.86903 13.4531 10.5 13.4531Z" stroke="white" stroke-width="2" stroke-linecap="round" stroke-linejoin="round"/>
<path d="M10.5 7.54688H17.8008" stroke="white" stroke-width="2" stroke-linecap="round" stroke-linejoin="round"/>
<path d="M7.94067 11.9766L4.29028 5.65195" stroke="white" stroke-width="2" stroke-linecap="round" stroke-linejoin="round"/>
<path d="M13.0593 11.9766L9.40894 18.3012" stroke="white" stroke-width="2" stroke-linecap="round" stroke-linejoin="round"/>
</svg>
