<svg width="25" height="31" viewBox="0 0 25 31" fill="none" xmlns="http://www.w3.org/2000/svg">
<path d="M24.8951 16.0299C24.8951 14.8867 23.925 14.0344 22.7556 14.0344C21.2573 14.0422 19.759 14.0499 18.2607 14.0653C17.7972 14.0653 17.3274 14.0653 16.883 14.216C15.8964 14.5443 15.3441 15.5034 15.4965 16.599C15.6361 17.5903 16.5046 18.3357 17.603 18.3653C18.6365 18.3923 19.6714 18.3846 20.7049 18.3923V24.6427L7.49199 16.0827L9.17187 14.7953C10.8124 13.6984 12.4186 12.5522 13.9905 11.3566C16.0069 9.9675 18.0131 8.56551 19.9647 7.08241C21.3462 6.10526 22.7442 5.15129 24.1015 4.14324C24.439 3.89537 24.699 3.55437 24.8508 3.16087C25.0025 2.76737 25.0395 2.33794 24.9573 1.92373C24.7592 0.972334 24.2437 0.291293 23.2584 0.107193C23.0946 -0.0215489 22.8991 0.00162358 22.7111 0.00162358C16.4538 0.00162358 10.1965 -0.00738785 3.94052 0.0222227C3.33458 0.0120656 2.73575 0.155609 2.19845 0.439804C1.66114 0.723998 1.20241 1.13983 0.863931 1.64951C0.47446 2.0729 0.222311 2.60713 0.141446 3.18025C-0.112503 4.72515 0.056373 6.28679 0.0398663 7.8407V13.7628C0.0335176 18.2237 -0.0109234 22.6859 0.0398663 27.1519C0.0639914 29.3186 1.83401 30.9897 3.95195 30.9923C10.1889 31.0026 16.4263 31.0026 22.6642 30.9923C23.0032 30.9923 23.3384 30.9807 23.6203 30.749C24.4532 30.4091 24.8976 29.7551 24.9129 28.8732C24.9395 27.354 24.8964 25.8336 24.8824 24.3132C24.8875 21.5542 24.9141 18.7979 24.8951 16.0299ZM10.7743 8.24108C10.6353 8.32009 10.5273 8.44506 10.4683 8.59512C10.2765 8.54105 10.1331 8.68266 9.98958 8.78694C8.7046 9.71388 7.41073 10.6279 6.1321 11.5626C5.95941 11.6914 5.71943 11.7905 5.72578 12.0776C5.48834 12.0042 5.322 12.1728 5.13408 12.2733C4.88013 12.411 4.70364 12.6736 4.40144 12.7457C4.31763 12.1201 4.45604 11.4776 4.32652 10.8494L4.34049 10.4541C4.38263 10.2948 4.39681 10.1292 4.38239 9.96493C4.39001 8.30331 4.39001 6.64082 4.38239 4.97748C4.38606 4.85585 4.38139 4.73412 4.36842 4.61315C4.41403 4.52416 4.49045 4.45539 4.58301 4.42003C7.72944 4.44063 10.8771 4.42003 14.0248 4.42003C14.2081 4.4396 14.3933 4.41941 14.5683 4.36081L14.7689 4.34665C15.1244 4.47539 15.5117 4.36081 15.8723 4.46123L16.0094 4.49985C15.9091 4.54778 15.8142 4.60648 15.7263 4.67494C14.0807 5.8658 12.4249 7.04765 10.7743 8.24108ZM15.7136 26.5764L15.6539 26.7837H13.9347C10.9381 26.7837 7.94021 26.7721 4.94362 26.794C4.42302 26.794 4.25161 26.6511 4.25922 26.1104C4.28716 24.0776 4.26938 22.0422 4.27065 20.0081C4.27065 19.775 4.24653 19.5369 4.40652 19.2356L15.7136 26.5764Z" fill="#D81F26"/>
</svg>
