<svg width="21" height="21" viewBox="0 0 21 21" fill="none" xmlns="http://www.w3.org/2000/svg">
<path d="M10.5 14.4375C12.6746 14.4375 14.4375 12.6746 14.4375 10.5C14.4375 8.32538 12.6746 6.5625 10.5 6.5625C8.32538 6.5625 6.5625 8.32538 6.5625 10.5C6.5625 12.6746 8.32538 14.4375 10.5 14.4375Z" stroke="#889FB4" stroke-width="2" stroke-linecap="round" stroke-linejoin="round"/>
<path d="M16.193 6.61992C16.3905 6.90265 16.5634 7.2018 16.7098 7.51406L18.8344 8.69531C19.0997 9.88351 19.1025 11.1153 18.8426 12.3047L16.7098 13.4859C16.5634 13.7982 16.3905 14.0973 16.193 14.3801L16.234 16.8164C15.3336 17.6369 14.2679 18.2551 13.1086 18.6293L11.0168 17.3742C10.6727 17.3988 10.3273 17.3988 9.98324 17.3742L7.89965 18.6211C6.7367 18.2537 5.66749 17.6379 4.76605 16.8164L4.80707 14.3883C4.61124 14.1016 4.43843 13.7999 4.29027 13.4859L2.16566 12.3047C1.90037 11.1165 1.89757 9.8847 2.15746 8.69531L4.29027 7.51406C4.43668 7.2018 4.60958 6.90265 4.80707 6.61992L4.76605 4.18359C5.66647 3.36308 6.73216 2.74492 7.89145 2.3707L9.98324 3.62578C10.3273 3.60116 10.6727 3.60116 11.0168 3.62578L13.1004 2.3789C14.2634 2.74631 15.3326 3.36209 16.234 4.18359L16.193 6.61992Z" stroke="#889FB4" stroke-width="2" stroke-linecap="round" stroke-linejoin="round"/>
</svg>
