<svg width="21" height="21" viewBox="0 0 21 21" fill="none" xmlns="http://www.w3.org/2000/svg">
<path d="M10.5 18.375C14.8492 18.375 18.375 14.8492 18.375 10.5C18.375 6.15076 14.8492 2.625 10.5 2.625C6.15076 2.625 2.625 6.15076 2.625 10.5C2.625 14.8492 6.15076 18.375 10.5 18.375Z" stroke="#889FB4" stroke-width="2" stroke-linecap="round" stroke-linejoin="round"/>
<path d="M5.82422 16.841C6.99334 14.9062 8.64208 13.306 10.6109 12.1951C12.5797 11.0842 14.8019 10.5004 17.0625 10.5C17.5055 10.5 17.9402 10.5246 18.375 10.5656" stroke="#889FB4" stroke-width="2" stroke-linecap="round" stroke-linejoin="round"/>
<path d="M15.4219 4.35587C14.1919 5.8664 12.6408 7.08383 10.8812 7.91961C9.12168 8.7554 7.19798 9.18853 5.25002 9.18751C4.42169 9.18657 3.59518 9.10968 2.78088 8.95782" stroke="#889FB4" stroke-width="2" stroke-linecap="round" stroke-linejoin="round"/>
<path d="M7.04651 3.4207C9.48818 4.86003 11.4002 7.04888 12.4983 9.66185C13.5964 12.2748 13.8219 15.1724 13.1414 17.9238" stroke="#889FB4" stroke-width="2" stroke-linecap="round" stroke-linejoin="round"/>
</svg>
